<svg xmlns="http://www.w3.org/2000/svg" width="130" height="44.7778" viewBox="0 0 130 44.7778"><title>Artboard 1</title><path d="M123.0157,19.9055l.9843.9627a20.569,20.569,0,0,1-2.8831,5.0668,4.5643,4.5643,0,0,1-3.3659,1.8843,1.8736,1.8736,0,0,1-2.1356-1.3794q-.4007-1.4392.7435-4.1814.3812-.9278.6884-1.6033c.2043-.45.3982-.8526.5782-1.2045s.3556-.6918.523-1.0157.3552-.6842.5619-1.0792a1.7217,1.7217,0,0,0,.1962-.9c-.0214-.2877-.7641-1.0781-1.02-1.2907l-2.59,5.8389-1.2258-.8941,2.7362-5.9921a3.1436,3.1436,0,0,1-.0014-2.349,2.3127,2.3127,0,0,1,1.5911-1.5519,1.4968,1.4968,0,0,1,1.2467.1849,1.3973,1.3973,0,0,1,.5751,1.0809,2.149,2.149,0,0,1-.73,1.5838,1.1933,1.1933,0,0,0-.3514.5943c-.02.1651.4181.4382.5181.5455a1.2658,1.2658,0,0,0,.4024.2767c.1674.0765.3218.1411.4614.1916a2.33,2.33,0,0,1,1.2386,1.1405,1.726,1.726,0,0,1,.0114,1.5165l-1.9829,4.8066a11.5656,11.5656,0,0,0-.7913,2.2094q-.14.7321.3968.7131.8253-.0279,1.7288-1.411A24.1,24.1,0,0,0,123.0157,19.9055Z" fill="#3b66a0"/><path d="M114.2758,16.5972l.5757,1.1018a10.1248,10.1248,0,0,1-2.2131,1.1579,9.408,9.408,0,0,1-2.1931.5341,3.0564,3.0564,0,0,1-.2053.6305,6.5733,6.5733,0,0,0-.2468.632,20.2746,20.2746,0,0,1-1.7292,3.1772,14.1042,14.1042,0,0,1-2.2834,2.6981,7.8625,7.8625,0,0,1-2.5695,1.6068,3.5169,3.5169,0,0,1-2.6268-.0531,3.0137,3.0137,0,0,1-1.6779-2.476,7.8323,7.8323,0,0,1,.8561-4.5179,23.1257,23.1257,0,0,1,2.3753-4.2179,13.8825,13.8825,0,0,1,2.53-2.7273,6.5714,6.5714,0,0,1,2.4356-1.2908,3.4332,3.4332,0,0,1,2.1322.0916,2.5549,2.5549,0,0,1,.8069.6157,1.4673,1.4673,0,0,1,.4056.9623,2.58,2.58,0,0,0-1.4853-.5088,2.9714,2.9714,0,0,0-1.7776.6027,8.3864,8.3864,0,0,0-1.9155,1.9785,17.8685,17.8685,0,0,0-1.9413,3.6211,8.2454,8.2454,0,0,0-.8144,3.3321,1.8547,1.8547,0,0,0,.9106,1.817,1.0509,1.0509,0,0,0,1.05-.12,5.3822,5.3822,0,0,0,1.3053-1.1053,12.58,12.58,0,0,0,1.3228-1.7917,15.0776,15.0776,0,0,0,1.104-2.1372l.34-.926a2.1557,2.1557,0,0,1-1.2379-1.12,2.9656,2.9656,0,0,1-.2813-1.5484,2.5941,2.5941,0,0,1,.5719-1.3913,1.7773,1.7773,0,0,1,1.4036-.6518,1.4823,1.4823,0,0,1,1.5417.9433,3.9763,3.9763,0,0,1,.1059,2.4477,10.3772,10.3772,0,0,0,1.9247-.5246A4.6268,4.6268,0,0,0,114.2758,16.5972Z" fill="#3b66a0"/><path d="M97.5317,20.8117l.9843.9627a19.3748,19.3748,0,0,1-2.8625,5.0662,4.6268,4.6268,0,0,1-3.3865,1.885,2.312,2.312,0,0,1-1.5232-.4037,1.8323,1.8323,0,0,1-.59-1.5168,8.047,8.047,0,0,1,.6858-2.87,30.0011,30.0011,0,0,1,2.3061-4.4233,13.1162,13.1162,0,0,0,1.2028-2.2653q.34-.9054-.1136-.8894a1.3535,1.3535,0,0,0-.69.3774,9.68,9.68,0,0,0-.9794.9691,13.5936,13.5936,0,0,0-1.0876,1.41,14.8319,14.8319,0,0,0-1.0144,1.7394q-.4635.93-1.0583,2.26t-1.1294,2.5954q-.6106,1.4754-1.2162,3.0761l-3.3859.1187q.8809-2.0253,1.6458-3.7977.3458-.76.67-1.54t.65-1.5188q.3257-.7381.594-1.3505t.4616-.9929q1.4236-3.0413.557-3.0111-.4126.0142-1.1246.9535A22.0173,22.0173,0,0,0,85.54,20.1525q-.8754,1.568-1.86,3.5765T81.7372,27.89l-.0014-.0415-.4978,1.14-3.4526.1187,6.787-15.1607,3.2523.0152L86.639,16.2053a7.6233,7.6233,0,0,1,2.0757-1.67,4.7973,4.7973,0,0,1,2.0892-.5512,1.3547,1.3547,0,0,1,1.1757.52,2.0913,2.0913,0,0,1,.3815,1.4616q2.159-2.1117,3.8107-2.17a1.5212,1.5212,0,0,1,.9392.258,1.5643,1.5643,0,0,1,.5854.79,2.7406,2.7406,0,0,1,.1045,1.2222,4.2624,4.2624,0,0,1-.5056,1.5135q-1.3938,2.7086-2.2456,4.38T93.7964,24.558a4.4661,4.4661,0,0,0-.4117,1.24c-.0064.2078.0734.3089.238.3034q.8258-.0287,1.871-1.4787A19.4984,19.4984,0,0,0,97.5317,20.8117Z" fill="#3b66a0"/><path d="M80.6993.4206q1.4782.9038.1238,4.7536t-5.975,10.0784a4.7917,4.7917,0,0,1,2.2051-.7838,1.86,1.86,0,0,1,1.6527.5654,2.0125,2.0125,0,0,1,.3224,1.5469,5.7233,5.7233,0,0,1-.7962,2.0642A10.864,10.864,0,0,1,76.59,20.76a9.774,9.774,0,0,1-2.2154,1.6774,6.0423,6.0423,0,0,1-2.557.7755,3.9942,3.9942,0,0,0,.227,1.1764,4.7021,4.7021,0,0,0,.5337,1.0826,3.1273,3.1273,0,0,0,.73.7844,1.3353,1.3353,0,0,0,.8572.2817q.826-.0289,1.9787-1.3576A13.8164,13.8164,0,0,0,78.29,21.49l.9842.9626a17.6522,17.6522,0,0,1-2.9657,5.07,5.2044,5.2044,0,0,1-3.7787,1.8987,2.0745,2.0745,0,0,1-1.3387-.4516,4.4347,4.4347,0,0,1-1.119-1.27,7.0884,7.0884,0,0,1-.7676-1.8638,8.607,8.607,0,0,1-.2841-2.2339q-.6658,1.0624-1.248,2.1628t-1.081,2.1988l-.69,1.5618-3.386.1187Q64.3732,25.51,65.79,22.2606q.5717-1.3911,1.1458-2.72t1.0334-2.384q.4592-1.0549.7469-1.7089a6.7289,6.7289,0,0,0,.2859-.696q1.731-3.7173,3.4078-6.6225a37.16,37.16,0,0,1,3.2029-4.7873A11.8963,11.8963,0,0,1,78.4343.6661a2.1437,2.1437,0,0,1,2.265-.2456ZM74.9827,16.7438a1.7365,1.7365,0,0,0-.874.4255,9.9939,9.9939,0,0,0-1.2213,1.1439q-.6771.73-1.4485,1.7338T69.882,22.2418a3.7491,3.7491,0,0,0,1.5733-.5331,9.3058,9.3058,0,0,0,1.4717-1.07A9.7967,9.7967,0,0,0,74.143,19.35a8.521,8.521,0,0,0,.8445-1.2762,2.6688,2.6688,0,0,0,.3384-.9675q.0285-.3752-.3432-.362ZM79.6145,3.7q-.17-.1184-.8868.6546A20.4141,20.4141,0,0,0,76.968,6.66q-1.0422,1.5321-2.348,3.8012t-2.6945,5.1435l-.99,2.4448q1.8169-2.4325,3.53-4.9026t2.944-4.508a38.4562,38.4562,0,0,0,1.8665-3.39Q79.9108,3.8971,79.6145,3.7Z" fill="#3b66a0"/><path d="M57.5524,15.5689q1.7283-3.8,3.4434-6.79a40.1268,40.1268,0,0,1,3.26-4.9345,11.7913,11.7913,0,0,1,2.8805-2.76,2.1959,2.1959,0,0,1,2.306-.2678q.9283.549.7612,2.2793A13.8916,13.8916,0,0,1,68.685,7.5742a51.4494,51.4494,0,0,1-3.9306,6.4541A91.4524,91.4524,0,0,1,58.2771,22.15a14.2762,14.2762,0,0,0-.4587,2.26,7.71,7.71,0,0,0-.03,1.5179,2.3563,2.3563,0,0,0,.238.9058.8956.8956,0,0,0,.3441.3826q.295.1558.8613-.1964a6.2244,6.2244,0,0,0,1.2242-1.061,14.282,14.282,0,0,0,1.3454-1.73,12.8186,12.8186,0,0,0,1.1844-2.2023l.9844.9626a14.7189,14.7189,0,0,1-3.7131,5.5739q-1.9507,1.5642-3.5372,1.1214a2.5566,2.5566,0,0,1-1.377-.97,4.2444,4.2444,0,0,1-.7053-2.4477,15.6358,15.6358,0,0,1,.5548-4.258,38.8422,38.8422,0,0,1,2.36-6.44ZM68.3572,4.0949q-.17-.1188-.9058.6965a23.7353,23.7353,0,0,0-1.838,2.4331q-1.1013,1.6179-2.4651,4.0133t-2.7462,5.4361l-.8436,1.8994q1.8583-2.4335,3.57-4.9245T66.1123,9.098A34.0748,34.0748,0,0,0,68.019,5.6651Q68.6534,4.2921,68.3572,4.0949Z" fill="#3b66a0"/><polygon points="118.618 2.453 119.311 2.453 119.892 4.451 120.48 2.453 121.187 2.453 121.187 5.173 120.747 5.173 120.747 2.836 120.048 5.173 119.731 5.173 119.035 2.84 119.035 5.173 118.618 5.173 118.618 2.453" fill="#3b66a0"/><polygon points="116.563 2.453 118.258 2.453 118.258 2.845 117.654 2.845 117.654 5.173 117.163 5.173 117.163 2.845 116.563 2.845 116.563 2.453" fill="#3b66a0"/><path d="M120.5273,30.49c-.8322-.1019-1.5893.7839-1.9779,1.7145-.3628-.8076-1.0934-1.4488-1.933-1.0668-1.0577.4763-1.58,3.1422,1.864,4.25C122,33.1356,121.5724,30.6247,120.5273,30.49Z" fill="#3b66a0"/><path d="M29.1288,44.5809s-1.2638-1.93,11.5038-3.8976c12.7522-1.9722,68.77-6.657,73.0352-7.0276-.905.5107-1.8545.9276-1.8545.9276S65.7311,38.6486,29.1288,44.5809Z" fill="#3b66a0"/><path d="M34.909,2.16a22.1335,22.1335,0,0,0-2.9219,5.4363A36.1975,36.1975,0,0,0,30.375,12.951c-.4167,1.8843-.9283,3.7487-1.2091,5.69-.2957,2.0433-.362,3.6289-.5741,5.4647q1.9879-3.4769,4.3691-6.9265a59.2846,59.2846,0,0,1,5.19-6.4983c1.98-2.1494,9.994-8.753,12.4129-9.7765l.5417,1.3106a41.2791,41.2791,0,0,0-4.8667,4.4659,29.3577,29.3577,0,0,0-4.3117,5.5947A33.5071,33.5071,0,0,0,39.0039,18.57a31.5263,31.5263,0,0,0-1.482,6.1394,17.5387,17.5387,0,0,0,.0146,5.1731,5.4535,5.4535,0,0,0,1.5825,3.31,1.1734,1.1734,0,0,1-.1606.7329,1.8434,1.8434,0,0,1-.597.665,2.4017,2.4017,0,0,1-.9175.3647,1.9915,1.9915,0,0,1-1.1632-.1669,4.0367,4.0367,0,0,1-2.2-2.0422,7.74,7.74,0,0,1-.6516-3.28,17.8411,17.8411,0,0,1,.5379-4.1534,36.3852,36.3852,0,0,1,1.4517-4.622q.91-2.3583,2.0491-4.6844t2.3083-4.3607a38.6478,38.6478,0,0,0-2.8061,3.11q-1.5266,1.8612-3.1015,4.14T30.79,23.6989q-1.5036,2.5247-2.7387,5.0616l-1.3742-.2841a37.7608,37.7608,0,0,1-.5588-4.1775,47.0681,47.0681,0,0,1-.1388-5.1892q-.8758,2.15-1.74,4.6528a45.5332,45.5332,0,0,1-2.0011,4.87,22.731,22.731,0,0,1-2.6821,4.3117A10.35,10.35,0,0,1,15.815,35.922a7.3252,7.3252,0,0,1-3.4041.7844,6.04,6.04,0,0,1-2.818-.7946,6.4674,6.4674,0,0,1-2.094-1.9625A8.5,8.5,0,0,1,6.266,31.1877a9.0818,9.0818,0,0,1-.2135-3.1716,9.393,9.393,0,0,1,.9424-3.2117A8.217,8.217,0,0,1,8.3541,22.866a9.0935,9.0935,0,0,1,1.8887-1.562,6.8616,6.8616,0,0,1,2.2223-.8885,5.2074,5.2074,0,0,1,2.3578.0419A3.0539,3.0539,0,0,1,16.4919,21.5a3.6085,3.6085,0,0,1,.7334,1.47,1.5129,1.5129,0,0,1-.1059,1.1257q-.2546.4038-.8074-.034a3.1708,3.1708,0,0,0-1.78-.6648,5.4471,5.4471,0,0,0-2.0375.2587A6.5544,6.5544,0,0,0,10.5457,24.68,6.3994,6.3994,0,0,0,9.03,26.27a7.9533,7.9533,0,0,0-.9424,2.0276,7.5616,7.5616,0,0,0-.3565,2.2356,4.5532,4.5532,0,0,0,.4423,2.0206,2.711,2.711,0,0,0,1.4522,1.341,4.87,4.87,0,0,0,3.4608.2524,8.8536,8.8536,0,0,0,3.2817-1.9227,19.4407,19.4407,0,0,0,3.0405-3.5139,45.2232,45.2232,0,0,0,2.7176-4.4795c.84-1.58,1.4792-3.2549,2.18-4.8853a78.2179,78.2179,0,0,0,3.1448-8.9185C28.2248,7.8123,31.332,1.97,34.004.916a.1034.1034,0,0,1,.1344.024Z" fill="#3b66a0"/><path d="M48.8332,15.7538s-2.0029-5.7985,1.72-8.731,6.0122.0913,4.8677,2.784-5.9849,1.9171-6.583,5.9445Z" fill="#3b66a0"/><path d="M47.1675,17.051c.5242.1086,2.08.6023,2.5439.3466-.0965-.4234-.7047-.3755-1.25-.4706-.2462-.043-.5994-.1309-.8276-.1589C47.0886,16.7017,47.2909,16.7349,47.1675,17.051Z" fill="#3b66a0"/><path d="M47.2332,17.33c-.43,1.6868-.9817,1.8385-1.7721,2.8636-.7218.9361-.82,2.5874-1.0392,3.86-1.0832,6.2875-1.3951,5.7082,1.7342,6.2527,1.8037.314,2.6407.9077,3.04-1.063.28-1.3821.4925-2.8359.7328-4.2314.2229-1.2942.6893-2.8763.3075-4.0258-.4655-1.4023-.7582-1.2968-.708-3.1825A10.3335,10.3335,0,0,0,47.2332,17.33Z" fill="#3b66a0"/></svg>